# xmcd
#
# Track frame offsets: 
#        150
#        22777
#        52370
#        79415
#        110460
#        142867
#
# Disc length: 2142 seconds
#
# Revision: 3
# Processed by: cddbd v1.5.2PL0 Copyright (c) Steve Scherf et al.
# Submitted via: ExactAudioCopy v0.99pb4
#
DISCID=49085c06
DTITLE=David Lindley and El Rayo-X - El Rayo Live
DYEAR=1983
DGENRE=Rock
TTITLE0=Wooly Bully
TTITLE1=Turning Point
TTITLE2=Talk To The Lawyer
TTITLE3=Spodie
TTITLE4=Rag Bag
TTITLE5=Mercury Blues
EXTD=YEAR: 1983
EXTT0=
EXTT1=
EXTT2=
EXTT3=
EXTT4=
EXTT5=
PLAYORDER=
